<svg xmlns="http://www.w3.org/2000/svg" viewBox="0 0 256 256" role="img" aria-label="AWS">
  <path fill="#F7F8FC" d="M44 102h24l20 62h-18l-4-15H45l-4 15H24l20-62Zm5 35h14l-7-25-7 25Zm48-35h17l11 40 12-40h16l12 40 11-40h17l-19 62h-17l-12-39-12 39h-17l-19-62Zm96 43c8 5 17 8 27 8 8 0 13-2 13-7 0-4-3-6-15-9-18-5-28-11-28-28 0-16 13-27 34-27 12 0 22 3 31 8l-8 14c-7-4-15-6-23-6-9 0-13 3-13 7 0 5 5 7 17 10 17 5 26 12 26 27 0 17-13 27-35 27-14 0-27-4-36-10l10-14Z"/>
  <path fill="#FF9900" d="M72 190c34 21 83 24 124 7 13-6 26-14 36-24 4-4 8 1 5 6-14 21-46 37-83 41-34 4-69-4-94-21-5-4 6-12 12-9Z"/>
  <path fill="#FF9900" d="M207 170c10-3 32-5 36 1 4 5-4 26-13 36-3 4-7 2-5-2 4-9 13-24 9-29-4-4-21-2-30-1-5 1-5-3 3-5Z"/>
</svg>
