<svg xmlns="http://www.w3.org/2000/svg" viewBox="0 0 256 256" role="img" aria-label="JavaScript">
  <path fill="#F7DF1E" d="M24 24h208v208H24V24Z"/>
  <path fill="#111111" d="M78 194c4 8 12 15 24 15 14 0 22-7 22-25v-86h27v87c0 35-21 51-50 51-27 0-43-14-51-31l28-11Z"/>
  <path fill="#111111" d="M166 191c7 11 17 19 35 19 15 0 24-7 24-18 0-13-10-17-27-25l-9-4c-27-12-45-27-45-59 0-30 23-52 58-52 25 0 43 9 56 32l-24 16c-7-12-15-17-32-17-15 0-24 9-24 21 0 14 9 20 30 29l9 4c32 14 50 29 50 62 0 36-28 56-66 56-37 0-61-18-73-41l38-23Z" transform="scale(.78) translate(38 23)"/>
</svg>
