<svg xmlns="http://www.w3.org/2000/svg" viewBox="0 0 256 256" role="img" aria-label="Python">
  <path fill="#3776AB" d="M126 24c-39 0-53 10-53 37v24h58v10H56c-26 0-48 16-55 48-8 37 8 60 35 60h22v-30c0-30 26-56 55-56h58c23 0 42-19 42-42V61c0-22-19-37-42-41-15-2-31-4-45 4Zm-31 24a15 15 0 1 1 0 30 15 15 0 0 1 0-30Z"/>
  <path fill="#FFD43B" d="M130 232c39 0 53-10 53-37v-24h-58v-10h75c26 0 48-16 55-48 8-37-8-60-35-60h-22v30c0 30-26 56-55 56H85c-23 0-42 19-42 42v14c0 22 19 37 42 41 15 2 31 4 45-4Zm31-24a15 15 0 1 1 0-30 15 15 0 0 1 0 30Z"/>
</svg>
